<?xml version="1.0" encoding="utf-8"?>
<!-- Generator: Adobe Illustrator 28.2.0, SVG Export Plug-In . SVG Version: 6.00 Build 0)  -->
<svg version="1.1" id="Layer_1" xmlns="http://www.w3.org/2000/svg" xmlns:xlink="http://www.w3.org/1999/xlink" x="0px" y="0px"
	 viewBox="0 0 1420 800" style="enable-background:new 0 0 1420 800;" xml:space="preserve">
<style type="text/css">
	.st0{fill:#111A15;}
</style>
<g>
	<g>
		
			<rect x="-46.83" y="28.5" transform="matrix(0.7071 -0.7071 0.7071 0.7071 -19.163 13.7365)" class="st0" width="107.65" height="3"/>
		
			<rect x="693.17" y="28.5" transform="matrix(0.7071 -0.7071 0.7071 0.7071 197.578 536.9955)" class="st0" width="107.65" height="3"/>
		
			<rect x="1337.5" y="-23.83" transform="matrix(0.7071 -0.7071 0.7071 0.7071 370.9708 955.6028)" class="st0" width="3" height="107.65"/>
		<polygon class="st0" points="115.88,67 118,69.12 189.88,141 115.88,215 118,217.12 192,143.12 194.12,141 192,138.88 120.12,67 
			192,-4.88 263.88,67 266,69.12 268.12,67 342.12,-7 340,-9.12 266,64.88 194.12,-7 192,-9.12 189.88,-7 118,64.88 		"/>
		<path class="st0" d="M636,69.12L707.88,141l2.12,2.12L781.88,215L710,286.88l-2.12,2.12L636,360.88l-2.12,2.12l2.12,2.12
			L707.88,437l2.12,2.12l2.12-2.12L784,365.12L855.88,437l2.12,2.12l74,74l2.12-2.12l-74-74l-2.12-2.12L786.12,363L858,291.12
			l2.12-2.12L932,217.12l71.88,71.88l2.12,2.12l2.12-2.12l74-74l-2.12-2.12l-74,74L934.12,215l71.88-71.88l2.12-2.12L1080,69.12
			l2.12-2.12L1154-4.88l74,74l2.12-2.12l-74-74L1154-9.12L1151.88-7L1080,64.88l-74-74L1003.88-7l74,74L1006,138.88l-74-74
			L929.88,67l74,74L932,212.88l-2.12,2.12L858,286.88L786.12,215L858,143.12l2.12-2.12l-2.12-2.12L786.12,67l74-74L858-9.12l-74,74
			L781.88,67L710,138.88L638.12,67l74-74L710-9.12l-74,74l-74-74L559.88-7l74,74L636,69.12z M855.88,289L784,360.88l-2.12,2.12
			L710,434.88L638.12,363L710,291.12l2.12-2.12L784,217.12L855.88,289z M784,69.12L855.88,141L784,212.88L712.12,141L784,69.12z"/>
		<polygon class="st0" points="855.88,67 858,69.12 929.88,141 855.88,215 858,217.12 932,143.12 934.12,141 932,138.88 860.12,67 
			932,-4.88 1006,69.12 1008.12,67 934.12,-7 932,-9.12 929.88,-7 858,64.88 		"/>
		<path class="st0" d="M1450,69.12l2.12-2.12l-2.12-2.12l-74-74L1373.88-7l74,74L1376,138.88L1304.12,67l-2.12-2.12l-74-74
			L1225.88-7l74,74L1228,138.88L1156.12,67l-2.12-2.12l-2.12,2.12L1080,138.88l-2.12,2.12l-74,74l2.12,2.12l74-74l71.88,71.88
			L1080,286.88l-2.12,2.12L1006,360.88L934.12,289l-2.12-2.12l-2.12,2.12L858,360.88l-2.12,2.12l2.12,2.12L929.88,437l2.12,2.12
			l71.88,71.88L932,582.88L860.12,511l-2.12-2.12L786.12,437l-2.12-2.12l-2.12,2.12L710,508.88L638.12,437l-2.12-2.12L564.12,363
			L636,291.12l2.12-2.12L710,217.12l2.12-2.12l-2.12-2.12L638.12,141l-2.12-2.12L564.12,67L562,64.88l-74-74L485.88-7l74,74
			L488,138.88L416.12,67L414,64.88L411.88,67L340,138.88l-2.12,2.12l2.12,2.12L411.88,215L340,286.88l-2.12,2.12l2.12,2.12
			L411.88,363L340,434.88l-2.12,2.12L266,508.88l-2.12,2.12l-74,74l2.12,2.12l74-74l2.12-2.12L340,439.12l2.12-2.12L414,365.12
			l2.12-2.12l-2.12-2.12L342.12,289L414,217.12L485.88,289l2.12,2.12L559.88,363l2.12,2.12L633.88,437L562,508.88l-2.12,2.12
			l2.12,2.12L633.88,585L562,656.88l-74-74l-2.12,2.12l74,74l2.12,2.12L633.88,733L562,804.88L490.12,733l-2.12-2.12l-74-74
			l-2.12,2.12l74,74l-74,74l2.12,2.12l74-74L559.88,807l2.12,2.12l2.12-2.12L636,735.12l2.12-2.12L710,661.12L781.88,733l-74,74
			l2.12,2.12l74-74L855.88,807l2.12,2.12l2.12-2.12L932,735.12l2.12-2.12l71.88-71.88l2.12-2.12l71.88-71.88l71.88,71.88l2.12,2.12
			l2.12-2.12l74-74l-2.12-2.12l-74,74L1082.12,585l-2.12-2.12l-2.12,2.12L1006,656.88L934.12,585l71.88-71.88l2.12-2.12l-2.12-2.12
			L934.12,437l-2.12-2.12L860.12,363L932,291.12l71.88,71.88l2.12,2.12l74,74l2.12-2.12l-74-74l71.88-71.88l74,74l2.12-2.12l-74-74
			l71.88-71.88l2.12-2.12l-2.12-2.12L1082.12,141L1154,69.12l71.88,71.88l2.12,2.12l71.88,71.88L1228,286.88l-2.12,2.12l2.12,2.12
			l71.88,71.88l2.12,2.12l71.88,71.88l-74,74l2.12,2.12l74-74l74,74l2.12-2.12l-74-74l71.88-71.88l2.12-2.12l-2.12-2.12L1378.12,289
			l-2.12-2.12l-2.12,2.12L1302,360.88L1230.12,289l71.88-71.88l2.12-2.12l71.88-71.88l74,74l2.12-2.12l-74-74L1450,69.12z
			 M707.88,215L636,286.88L564.12,215L636,143.12L707.88,215z M416.12,215l-2.12-2.12L342.12,141L414,69.12L485.88,141l2.12,2.12
			l2.12-2.12L562,69.12L633.88,141L562,212.88l-2.12,2.12L488,286.88L416.12,215z M490.12,289L562,217.12L633.88,289L562,360.88
			L490.12,289z M929.88,585L858,656.88L786.12,585L858,513.12L929.88,585z M784,439.12L855.88,511L784,582.88L712.12,511L784,439.12
			z M781.88,585L710,656.88L638.12,585L710,513.12L781.88,585z M564.12,511L636,439.12L707.88,511L636,582.88L564.12,511z
			 M636,730.88L564.12,659L636,587.12L707.88,659L636,730.88z M712.12,659L784,587.12L855.88,659L784,730.88L712.12,659z
			 M1003.88,659L932,730.88l-2.12,2.12L858,804.88L786.12,733L858,661.12l2.12-2.12L932,587.12L1003.88,659z M1376,291.12
			l71.88,71.88L1376,434.88L1304.12,363L1376,291.12z M1302,212.88L1230.12,141L1302,69.12l71.88,71.88L1302,212.88z"/>
		<polygon class="st0" points="562,138.88 488,212.88 414,138.88 411.88,141 485.88,215 488,217.12 490.12,215 564.12,141 		"/>
		<polygon class="st0" points="1376,212.88 1373.88,215 1299.88,289 1302,291.12 1376,217.12 1450,291.12 1452.12,289 1378.12,215 
					"/>
		
			<rect x="693.17" y="324.5" transform="matrix(0.7071 -0.7071 0.7071 0.7071 -11.7256 623.692)" class="st0" width="107.65" height="3"/>
		<path class="st0" d="M-32.12,511l2.12,2.12L41.88,585l2.12,2.12l2.12-2.12L118,513.12l2.12-2.12L192,439.12l2.12-2.12L266,365.12
			l2.12-2.12l-2.12-2.12L194.12,289l74-74l-2.12-2.12l-74,74l-2.12,2.12l2.12,2.12L263.88,363L192,434.88L120.12,363l-2.12-2.12
			l-2.12,2.12L44,434.88l-74-74l-2.12,2.12l74,74L-30,508.88L-32.12,511z M118,365.12L189.88,437L118,508.88L46.12,437L118,365.12z
			 M44,439.12L115.88,511L44,582.88L-27.88,511L44,439.12z"/>
		<polygon class="st0" points="414,513.12 416.12,511 490.12,437 488,434.88 414,508.88 411.88,511 337.88,585 340,587.12 		"/>
		<path class="st0" d="M1452.12,585l-2.12-2.12L1378.12,511l-2.12-2.12l-2.12,2.12L1302,582.88L1230.12,511l71.88-71.88l2.12-2.12
			l-2.12-2.12L1230.12,363l-2.12-2.12L1156.12,289l71.88-71.88l2.12-2.12l-2.12-2.12l-74-74l-2.12,2.12l74,74L1154,286.88
			l-2.12,2.12l2.12,2.12l71.88,71.88L1154,434.88l-74-74l-2.12,2.12l74,74L1080,508.88L1008.12,437l-2.12-2.12l-74-74l-2.12,2.12
			l74,74l2.12,2.12l71.88,71.88l-74,74l2.12,2.12l74-74l71.88,71.88l2.12,2.12l2.12-2.12l71.88-71.88l71.88,71.88L1228,656.88
			l-2.12,2.12L1154,730.88L1082.12,659l-2.12-2.12l-2.12,2.12L1006,730.88l-2.12,2.12l-74,74l2.12,2.12l74-74l2.12-2.12l71.88-71.88
			l71.88,71.88l-74,74l2.12,2.12l74-74l74,74l2.12-2.12l-74-74l71.88-71.88l74,74l2.12-2.12l-74-74l71.88-71.88l71.88,71.88
			l2.12,2.12l71.88,71.88l-74,74l2.12,2.12l74-74l2.12-2.12l-2.12-2.12L1378.12,659l71.88-71.88L1452.12,585z M1228,365.12
			l71.88,71.88L1228,508.88L1156.12,437L1228,365.12z M1154,582.88L1082.12,511l71.88-71.88l71.88,71.88L1154,582.88z M1376,656.88
			L1304.12,585l71.88-71.88l71.88,71.88L1376,656.88z"/>
		<polygon class="st0" points="118,661.12 192,735.12 194.12,733 120.12,659 118,656.88 115.88,659 44,730.88 41.88,733 44,735.12 
			118,809.12 120.12,807 46.12,733 		"/>
		
			<rect x="841.17" y="694.5" transform="matrix(0.7071 -0.7071 0.7071 0.7071 -230.0069 836.7142)" class="st0" width="107.65" height="3"/>
		<path class="st0" d="M416.12,733l-2.12-2.12L342.12,659L414,587.12L485.88,659l2.12,2.12l74,74l2.12-2.12l-74-74l-2.12-2.12
			L416.12,585L488,513.12l74,74l2.12-2.12l-74-74L562,439.12l2.12-2.12l-2.12-2.12L490.12,363l-2.12-2.12l-74-74l-2.12,2.12l74,74
			L414,434.88l-2.12,2.12L340,508.88l-2.12,2.12L266,582.88l-2.12,2.12L192,656.88L120.12,585L192,513.12l2.12-2.12L266,439.12
			l2.12-2.12L340,365.12l2.12-2.12l-2.12-2.12L268.12,289L340,217.12l2.12-2.12l-2.12-2.12L268.12,141L340,69.12l2.12-2.12L414-4.88
			l74,74l2.12-2.12l-74-74L414-9.12L411.88-7L340,64.88L337.88,67L266,138.88l-74-74L189.88,67l74,74L192,212.88l-2.12,2.12
			L118,286.88L46.12,215L118,143.12l2.12-2.12l-2.12-2.12L46.12,67l74-74L118-9.12l-74,74L41.88,67L-30,138.88l-2.12,2.12l2.12,2.12
			L41.88,215L-30,286.88l-2.12,2.12l2.12,2.12L41.88,363l2.12,2.12l2.12-2.12L118,291.12l74,74l2.12-2.12l-74-74L192,217.12
			l2.12-2.12L266,143.12L337.88,215L266,286.88l-2.12,2.12l2.12,2.12L337.88,363L266,434.88l-2.12,2.12L192,508.88l-2.12,2.12
			L118,582.88l-2.12,2.12L44,656.88l-74-74l-2.12,2.12l74,74L-30,730.88l-2.12,2.12l2.12,2.12l74,74l2.12-2.12l-74-74L44,661.12
			l2.12-2.12L118,587.12L189.88,659l2.12,2.12L263.88,733L192,804.88l-74-74l-2.12,2.12l74,74l2.12,2.12l2.12-2.12L266,735.12
			L337.88,807l2.12,2.12l2.12-2.12L414,735.12L416.12,733z M-27.88,141L44,69.12L115.88,141L44,212.88L-27.88,141z M44,360.88
			L-27.88,289L44,217.12L115.88,289L44,360.88z M340,513.12l2.12-2.12L414,439.12l2.12-2.12L488,365.12L559.88,437L488,508.88
			l-2.12,2.12L414,582.88l-2.12,2.12L340,656.88L268.12,585L340,513.12z M194.12,659L266,587.12L337.88,659L266,730.88L194.12,659z
			 M340,804.88L268.12,733L340,661.12L411.88,733L340,804.88z"/>
		
			<rect x="619.17" y="768.5" transform="matrix(0.7071 -0.7071 0.7071 0.7071 -347.3551 701.4106)" class="st0" width="107.65" height="3"/>
		
			<rect x="989.17" y="768.5" transform="matrix(0.7071 -0.7071 0.7071 0.7071 -238.9846 963.0402)" class="st0" width="107.65" height="3"/>
		<polygon class="st0" points="1378.12,733 1376,730.88 1302,656.88 1299.88,659 1373.88,733 1302,804.88 1228,730.88 1225.88,733 
			1299.88,807 1302,809.12 1304.12,807 1376,735.12 		"/>
	</g>
</g>
</svg>
